Coordinates
version=1
nRows=9
nColumns=24
inDegrees=yes

Units are S.I. units (second, meters, Newtons, ...)
Angles are in degrees.

endheader
time	pelvis_tilt	pelvis_list	pelvis_rotation	pelvis_tx	pelvis_ty	pelvis_tz	hip_flexion_r	hip_adduction_r	hip_rotation_r	knee_angle_r	ankle_angle_r	subtalar_angle_r	mtp_angle_r	hip_flexion_l	hip_adduction_l	hip_rotation_l	knee_angle_l	ankle_angle_l	subtalar_angle_l	mtp_angle_l	lumbar_extension	lumbar_bending	lumbar_rotation
      1.50450000	     -2.55626239	     -3.89380142	     -9.50261371	      0.95403182	      0.98789657	      0.30555821	    -16.96811014	      6.33034557	     11.17113573	    -13.62223799	     12.85094465	     -2.54320603	      6.33484072	     31.99545816	     -7.51711074	     -5.22172480	     -2.75672428	     14.13233133	     -8.38737312	     -2.32066949	      0.02011328	      1.58317021	     10.54204652
      1.50866667	     -2.56044979	     -3.82071124	     -9.59960555	      0.96023557	      0.98713413	      0.30508241	    -17.23957437	      6.10980045	     11.06352160	    -13.71826878	     12.61570164	     -2.34075460	      6.43344128	     31.99595193	     -7.42035814	     -5.04764267	     -3.32561340	     14.36672344	     -8.54963879	     -2.29369855	      0.14138486	      1.53024347	     10.67172212
      1.51283333	     -2.58014357	     -3.74819185	     -9.69136030	      0.96646703	      0.98633438	      0.30456452	    -17.46399508	      5.88479423	     10.86769462	    -13.86718493	     12.38140857	     -1.97557486	     10.31256187	     31.98749713	     -7.31093539	     -4.75435363	     -3.84310408	     14.40175296	     -8.96356833	     -1.40695187	      0.27181306	      1.48249052	     10.81901508
      1.51700000	     -2.57237211	     -3.65197022	     -9.78520817	      0.97281403	      0.98559347	      0.30407094	    -17.73747844	      5.63912257	     10.75197874	    -13.98004550	     12.08487237	     -1.85328730	     10.32881620	     31.94764434	     -7.18475240	     -4.65766349	     -4.38581888	     14.56179309	     -9.04374987	     -1.39160129	      0.41717903	      1.40357973	     10.94656452
      1.52116667	     -2.58379892	     -3.55461117	     -9.87927310	      0.97919995	      0.98483737	      0.30356148	    -17.97430326	      5.39491941	     10.62553122	    -14.12495190	     11.79389599	     -1.67367279	     10.36344522	     31.91880154	     -7.05633118	     -4.54443454	     -4.92336415	     14.67158998	     -9.14585798	     -1.36794681	      0.57696959	      1.32941035	     11.08519910
      1.52533333	     -2.59586589	     -3.44565656	     -9.95947045	      0.98562735	      0.98406624	      0.30299049	    -18.18744755	      5.13559025	     10.42698123	    -14.31434830	     11.58601727	     -1.35178219	     10.51090600	     31.88127039	     -6.90215018	     -4.40896384	     -5.42879867	     14.64329756	     -9.30692751	     -1.28231991	      0.73983637	      1.24450962	     11.34561725
      1.52950000	     -2.62125193	     -3.33812102	    -10.05558135	      0.99209015	      0.98330751	      0.30245899	    -18.37857874	      4.88410988	     10.28453298	    -14.51339669	     11.23586605	     -1.19627582	     10.57542175	     31.84248972	     -6.76151719	     -4.32271555	     -5.91994270	     14.60478724	     -9.42985460	     -1.23833802	      0.92655289	      1.16460103	     11.39783328
      1.53366667	     -2.64467586	     -3.19659664	    -10.14818707	      0.99860828	      0.98254897	      0.30187338	    -18.53604953	      4.58727486	     10.04666765	    -14.77756156	     11.01820899	     -0.82995760	     10.92553523	     31.78042788	     -6.57242066	     -4.16458455	     -6.35813411	     14.38399167	     -9.79161123	     -1.01607340	      1.10639796	      1.05527825	     11.62189269
      1.53783333	     -2.67832423	     -3.07465240	    -10.21896970	      1.00515997	      0.98179386	      0.30128292	    -18.70473867	      4.33298365	      9.90345184	    -14.99355431	     10.60757203	     -0.72712990	     10.97794358	     31.75294291	     -6.40586898	     -4.12457000	     -6.84104863	     14.22591221	     -9.83672418	     -0.97775583	      1.29407413	      0.97450911	     11.63784228
